# xmcd
#
# Track frame offsets:
#	150
#	10537
#	25600
#	34893
#	46856
#	67106
#	83106
#	96757
#	109365
#	120466
#	133268
#	145211
#	158782
#	172168
#	184472
#	199811
#	217432
#	235457
#	248766
#	264046
#	277122
#	294931
#	315411
#	327740
#
# Disc length: 4544 seconds
#
# Revision: 0
# Processed by: cddbd v1.5.2PL0 Copyright (c) Steve Scherf et al.
# Submitted via: audiograbber 1.83.01
#
DISCID=6b11be18
DTITLE=Country Mikel - 1
DYEAR=1900
DGENRE=Country
TTITLE0=Blue Moon of Kentucky
TTITLE1=Thank God for the Radio
TTITLE2=Truck drivin Man
TTITLE3=Chatahoochee
TTITLE4=Coward of country
TTITLE5=Ich bin so gern ein Cowboy
TTITLE6=Take it easy altes Haus
TTITLE7=500 Miles away from Home
TTITLE8=Daddy sang Bass
TTITLE9=Games People Play
TTITLE10=I walk the line
TTITLE11=Amarillo by Morning Mixdown
TTITLE12=Dieseltruck
TTITLE13=Singin the blues
TTITLE14=Mama dont let you Baby
TTITLE15=Ghostriders in the Sky
TTITLE16=Unchain Melody country
TTITLE17=Folsom prison Blues
TTITLE18=Sauerland
TTITLE19=Ring of Fire
TTITLE20=If tomorrow never comes (deutsch)
TTITLE21=Der Tag ist mein Freund
TTITLE22=A thing called love
TTITLE23=Honky Tonk Superman
EXTD=
EXTT0=
EXTT1=
EXTT2=
EXTT3=
EXTT4=
EXTT5=
EXTT6=
EXTT7=
EXTT8=
EXTT9=
EXTT10=
EXTT11=
EXTT12=
EXTT13=
EXTT14=
EXTT15=
EXTT16=
EXTT17=
EXTT18=
EXTT19=
EXTT20=
EXTT21=
EXTT22=
EXTT23=
PLAYORDER=
